<mxfile host="app.diagrams.net" modified="2021-03-22T17:39:37.239Z" agent="5.0 (Windows NT 10.0; Win64; x64) AppleWebKit/537.36 (KHTML, like Gecko) Chrome/89.0.4389.90 Safari/537.36" etag="QYLnGKO1uxFJ0bisgIKp" version="14.5.0" type="github">
  <diagram id="NEhHKkcjUEfHVbFgBnRx" name="Page-1">
    <mxGraphModel dx="716" dy="378" grid="1" gridSize="10" guides="1" tooltips="1" connect="1" arrows="1" fold="1" page="1" pageScale="1" pageWidth="827" pageHeight="1169" math="1" shadow="0">
      <root>
        <mxCell id="0" />
        <mxCell id="1" parent="0" />
        <mxCell id="ELITJDshUzZdKB17MEa8-15" style="edgeStyle=orthogonalEdgeStyle;rounded=0;sketch=0;jumpStyle=none;orthogonalLoop=1;jettySize=auto;html=1;exitX=1;exitY=0.5;exitDx=0;exitDy=0;entryX=1;entryY=0.5;entryDx=0;entryDy=0;shadow=0;" edge="1" parent="1" source="ELITJDshUzZdKB17MEa8-1" target="ELITJDshUzZdKB17MEa8-2">
          <mxGeometry relative="1" as="geometry">
            <Array as="points">
              <mxPoint x="520" y="155" />
              <mxPoint x="520" y="250" />
            </Array>
          </mxGeometry>
        </mxCell>
        <mxCell id="ELITJDshUzZdKB17MEa8-1" value="&lt;b&gt;&lt;font style=&quot;font-size: 14px&quot;&gt;Agent&lt;/font&gt;&lt;/b&gt;" style="rounded=1;whiteSpace=wrap;html=1;strokeWidth=1;" vertex="1" parent="1">
          <mxGeometry x="340" y="130" width="90" height="50" as="geometry" />
        </mxCell>
        <mxCell id="ELITJDshUzZdKB17MEa8-13" style="edgeStyle=orthogonalEdgeStyle;rounded=0;sketch=0;jumpStyle=none;orthogonalLoop=1;jettySize=auto;html=1;exitX=0;exitY=0.25;exitDx=0;exitDy=0;shadow=0;" edge="1" parent="1" source="ELITJDshUzZdKB17MEa8-2">
          <mxGeometry relative="1" as="geometry">
            <mxPoint x="240.0000000000001" y="230.27586206896558" as="targetPoint" />
          </mxGeometry>
        </mxCell>
        <mxCell id="ELITJDshUzZdKB17MEa8-14" style="edgeStyle=orthogonalEdgeStyle;rounded=0;sketch=0;jumpStyle=none;orthogonalLoop=1;jettySize=auto;html=1;exitX=0;exitY=0.75;exitDx=0;exitDy=0;shadow=0;" edge="1" parent="1" source="ELITJDshUzZdKB17MEa8-2">
          <mxGeometry relative="1" as="geometry">
            <mxPoint x="240.0000000000001" y="270.2758620689656" as="targetPoint" />
          </mxGeometry>
        </mxCell>
        <mxCell id="ELITJDshUzZdKB17MEa8-2" value="&lt;b&gt;&lt;font style=&quot;font-size: 16px&quot;&gt;Environment&lt;/font&gt;&lt;/b&gt;" style="rounded=1;whiteSpace=wrap;html=1;strokeWidth=2;" vertex="1" parent="1">
          <mxGeometry x="300" y="210" width="170" height="80" as="geometry" />
        </mxCell>
        <mxCell id="ELITJDshUzZdKB17MEa8-7" value="" style="endArrow=none;dashed=1;html=1;" edge="1" parent="1">
          <mxGeometry width="50" height="50" relative="1" as="geometry">
            <mxPoint x="240" y="290" as="sourcePoint" />
            <mxPoint x="240" y="220" as="targetPoint" />
          </mxGeometry>
        </mxCell>
        <mxCell id="ELITJDshUzZdKB17MEa8-10" value="" style="endArrow=classic;html=1;rounded=0;entryX=0;entryY=0.25;entryDx=0;entryDy=0;" edge="1" parent="1" target="ELITJDshUzZdKB17MEa8-1">
          <mxGeometry width="50" height="50" relative="1" as="geometry">
            <mxPoint x="240" y="270" as="sourcePoint" />
            <mxPoint x="170" y="150" as="targetPoint" />
            <Array as="points">
              <mxPoint x="200" y="270" />
              <mxPoint x="200" y="143" />
            </Array>
          </mxGeometry>
        </mxCell>
        <mxCell id="ELITJDshUzZdKB17MEa8-12" value="" style="endArrow=classic;html=1;shadow=0;rounded=0;entryX=0;entryY=0.75;entryDx=0;entryDy=0;" edge="1" parent="1" target="ELITJDshUzZdKB17MEa8-1">
          <mxGeometry width="50" height="50" relative="1" as="geometry">
            <mxPoint x="240" y="230" as="sourcePoint" />
            <mxPoint x="270" y="170" as="targetPoint" />
            <Array as="points">
              <mxPoint x="210" y="230" />
              <mxPoint x="210" y="168" />
            </Array>
          </mxGeometry>
        </mxCell>
        <mxCell id="ELITJDshUzZdKB17MEa8-16" value="State" style="text;html=1;strokeColor=none;fillColor=none;align=center;verticalAlign=middle;whiteSpace=wrap;rounded=0;" vertex="1" parent="1">
          <mxGeometry x="160" y="190" width="40" height="20" as="geometry" />
        </mxCell>
        <mxCell id="ELITJDshUzZdKB17MEa8-18" value="Action" style="text;html=1;strokeColor=none;fillColor=none;align=center;verticalAlign=middle;whiteSpace=wrap;rounded=0;" vertex="1" parent="1">
          <mxGeometry x="520" y="180" width="40" height="20" as="geometry" />
        </mxCell>
        <mxCell id="ELITJDshUzZdKB17MEa8-19" value="$$A_t$$" style="text;html=1;strokeColor=none;fillColor=none;align=center;verticalAlign=middle;whiteSpace=wrap;rounded=0;" vertex="1" parent="1">
          <mxGeometry x="520" y="200" width="40" height="20" as="geometry" />
        </mxCell>
        <mxCell id="ELITJDshUzZdKB17MEa8-20" value="Reward" style="text;html=1;strokeColor=none;fillColor=none;align=center;verticalAlign=middle;whiteSpace=wrap;rounded=0;" vertex="1" parent="1">
          <mxGeometry x="220" y="170" width="40" height="20" as="geometry" />
        </mxCell>
        <mxCell id="ELITJDshUzZdKB17MEa8-21" value="$$S_{t+1}$$" style="text;html=1;strokeColor=none;fillColor=none;align=center;verticalAlign=middle;whiteSpace=wrap;rounded=0;" vertex="1" parent="1">
          <mxGeometry x="250" y="250" width="40" height="20" as="geometry" />
        </mxCell>
        <mxCell id="ELITJDshUzZdKB17MEa8-22" value="$$R_t$$" style="text;html=1;strokeColor=none;fillColor=none;align=center;verticalAlign=middle;whiteSpace=wrap;rounded=0;" vertex="1" parent="1">
          <mxGeometry x="210" y="190" width="40" height="20" as="geometry" />
        </mxCell>
        <mxCell id="ELITJDshUzZdKB17MEa8-25" value="$$R_{t+1}$$" style="text;html=1;strokeColor=none;fillColor=none;align=center;verticalAlign=middle;whiteSpace=wrap;rounded=0;" vertex="1" parent="1">
          <mxGeometry x="250" y="210" width="40" height="20" as="geometry" />
        </mxCell>
        <mxCell id="ELITJDshUzZdKB17MEa8-26" value="$$S_t$$" style="text;html=1;strokeColor=none;fillColor=none;align=center;verticalAlign=middle;whiteSpace=wrap;rounded=0;" vertex="1" parent="1">
          <mxGeometry x="160" y="210" width="40" height="20" as="geometry" />
        </mxCell>
      </root>
    </mxGraphModel>
  </diagram>
</mxfile>
